<?xml version="1.0" encoding="utf-8"?>
<!-- Generator: Adobe Illustrator 18.1.1, SVG Export Plug-In . SVG Version: 6.00 Build 0)  -->
<svg version="1.1" id="Layer_1" xmlns="http://www.w3.org/2000/svg" xmlns:xlink="http://www.w3.org/1999/xlink" x="0px" y="0px"
	 viewBox="0 0 91 11.1" enable-background="new 0 0 91 11.1" xml:space="preserve">
<g id="XMLID_2_">
	<linearGradient id="XMLID_37_" gradientUnits="userSpaceOnUse" x1="5.9149" y1="8.6017" x2="5.9149" y2="0.9369">
		<stop  offset="0" style="stop-color:#CFE7F5"/>
		<stop  offset="1" style="stop-color:#84C5DC"/>
	</linearGradient>
	<path id="XMLID_3_" fill="url(#XMLID_37_)" stroke="#62A1C0" stroke-width="0.3" stroke-miterlimit="10" d="M9.8,0.9v7.7H8.2v-3
		H3.7v3H2V0.9h1.7v3h4.5v-3H9.8z"/>
	<linearGradient id="XMLID_38_" gradientUnits="userSpaceOnUse" x1="14.1385" y1="8.6017" x2="14.1385" y2="2.4274">
		<stop  offset="0" style="stop-color:#CFE7F5"/>
		<stop  offset="1" style="stop-color:#84C5DC"/>
	</linearGradient>
	<path id="XMLID_5_" fill="url(#XMLID_38_)" stroke="#62A1C0" stroke-width="0.3" stroke-miterlimit="10" d="M15.7,2.4
		c0.2,0,0.4,0,0.6,0.1c0.2,0.1,0.4,0.2,0.5,0.3C17,3,17.1,3.2,17.1,3.4c0.1,0.2,0.1,0.4,0.1,0.6v4.6h-4.7c-0.2,0-0.4,0-0.6-0.1
		c-0.2-0.1-0.4-0.2-0.5-0.3s-0.2-0.3-0.3-0.5C11,7.5,11,7.3,11,7.1V4.7h4.6V4.1H11V2.4H15.7z M15.6,6.1h-3V7h3V6.1z"/>
	<linearGradient id="XMLID_39_" gradientUnits="userSpaceOnUse" x1="21.2393" y1="8.6017" x2="21.2393" y2="0.4044">
		<stop  offset="0" style="stop-color:#CFE7F5"/>
		<stop  offset="1" style="stop-color:#84C5DC"/>
	</linearGradient>
	<path id="XMLID_8_" fill="url(#XMLID_39_)" stroke="#62A1C0" stroke-width="0.3" stroke-miterlimit="10" d="M22.8,2.4
		c0.2,0,0.4,0,0.6,0.1c0.2,0.1,0.4,0.2,0.5,0.3c0.1,0.1,0.2,0.3,0.3,0.5c0.1,0.2,0.1,0.4,0.1,0.6v3.1c0,0.2,0,0.4-0.1,0.6
		c-0.1,0.2-0.2,0.3-0.3,0.5c-0.1,0.1-0.3,0.3-0.5,0.3c-0.2,0.1-0.4,0.1-0.6,0.1h-4.7V0.4h1.6v2H22.8z M19.7,7h3V4.1h-3V7z"/>
	<linearGradient id="XMLID_40_" gradientUnits="userSpaceOnUse" x1="26.0029" y1="8.6017" x2="26.0029" y2="0.4044">
		<stop  offset="0" style="stop-color:#CFE7F5"/>
		<stop  offset="1" style="stop-color:#84C5DC"/>
	</linearGradient>
	<path id="XMLID_11_" fill="url(#XMLID_40_)" stroke="#62A1C0" stroke-width="0.3" stroke-miterlimit="10" d="M26.8,0.4V2h-1.6V0.4
		H26.8z M25.2,2.4h1.6v6.2h-1.6V2.4z"/>
	<linearGradient id="XMLID_41_" gradientUnits="userSpaceOnUse" x1="29.8086" y1="8.6017" x2="29.8086" y2="0.5962">
		<stop  offset="0" style="stop-color:#CFE7F5"/>
		<stop  offset="1" style="stop-color:#84C5DC"/>
	</linearGradient>
	<path id="XMLID_14_" fill="url(#XMLID_41_)" stroke="#62A1C0" stroke-width="0.3" stroke-miterlimit="10" d="M29.5,4.1V7h2.3v1.6
		h-2.4c-0.2,0-0.4,0-0.6-0.1c-0.2-0.1-0.4-0.2-0.5-0.3C28.2,8,28.1,7.8,28,7.7c-0.1-0.2-0.1-0.4-0.1-0.6V0.6h1.6v1.8h2.3v1.6H29.5z"
		/>
	<linearGradient id="XMLID_42_" gradientUnits="userSpaceOnUse" x1="36.0895" y1="8.6017" x2="36.0895" y2="2.4274">
		<stop  offset="0" style="stop-color:#CFE7F5"/>
		<stop  offset="1" style="stop-color:#84C5DC"/>
	</linearGradient>
	<path id="XMLID_16_" fill="url(#XMLID_42_)" stroke="#62A1C0" stroke-width="0.3" stroke-miterlimit="10" d="M37.7,2.4
		c0.2,0,0.4,0,0.6,0.1c0.2,0.1,0.4,0.2,0.5,0.3C38.9,3,39,3.2,39.1,3.4c0.1,0.2,0.1,0.4,0.1,0.6v4.6h-4.7c-0.2,0-0.4,0-0.6-0.1
		c-0.2-0.1-0.4-0.2-0.5-0.3s-0.2-0.3-0.3-0.5C33,7.5,33,7.3,33,7.1V4.7h4.6V4.1H33V2.4H37.7z M37.6,6.1h-3V7h3V6.1z"/>
	<linearGradient id="XMLID_43_" gradientUnits="userSpaceOnUse" x1="42.317" y1="8.6017" x2="42.317" y2="0.5962">
		<stop  offset="0" style="stop-color:#CFE7F5"/>
		<stop  offset="1" style="stop-color:#84C5DC"/>
	</linearGradient>
	<path id="XMLID_19_" fill="url(#XMLID_43_)" stroke="#62A1C0" stroke-width="0.3" stroke-miterlimit="10" d="M42,4.1V7h2.3v1.6
		h-2.4c-0.2,0-0.4,0-0.6-0.1c-0.2-0.1-0.4-0.2-0.5-0.3c-0.1-0.1-0.2-0.3-0.3-0.5c-0.1-0.2-0.1-0.4-0.1-0.6V0.6H42v1.8h2.3v1.6H42z"
		/>
	<linearGradient id="XMLID_44_" gradientUnits="userSpaceOnUse" x1="52.431" y1="8.6017" x2="52.431" y2="0.9369">
		<stop  offset="0" style="stop-color:#CFE7F5"/>
		<stop  offset="1" style="stop-color:#84C5DC"/>
	</linearGradient>
	<path id="XMLID_21_" fill="url(#XMLID_44_)" stroke="#62A1C0" stroke-width="0.3" stroke-miterlimit="10" d="M50.2,6.9h4.3v-6h1.7
		V7c0,0.2,0,0.4-0.1,0.6c-0.1,0.2-0.2,0.4-0.3,0.5c-0.1,0.1-0.3,0.3-0.5,0.3c-0.2,0.1-0.4,0.1-0.6,0.1h-4.5c-0.2,0-0.4,0-0.6-0.1
		c-0.2-0.1-0.4-0.2-0.5-0.3s-0.3-0.3-0.3-0.5c-0.1-0.2-0.1-0.4-0.1-0.6V0.9h1.6V6.9z"/>
	<linearGradient id="XMLID_45_" gradientUnits="userSpaceOnUse" x1="60.5424" y1="11.0505" x2="60.5424" y2="2.4274">
		<stop  offset="0" style="stop-color:#CFE7F5"/>
		<stop  offset="1" style="stop-color:#84C5DC"/>
	</linearGradient>
	<path id="XMLID_23_" fill="url(#XMLID_45_)" stroke="#62A1C0" stroke-width="0.3" stroke-miterlimit="10" d="M62.1,2.4
		c0.2,0,0.4,0,0.6,0.1c0.2,0.1,0.4,0.2,0.5,0.3c0.1,0.1,0.2,0.3,0.3,0.5c0.1,0.2,0.1,0.4,0.1,0.6v3.1c0,0.2,0,0.4-0.1,0.6
		c-0.1,0.2-0.2,0.3-0.3,0.5s-0.3,0.3-0.5,0.3c-0.2,0.1-0.4,0.1-0.6,0.1H59v2.4h-1.6V2.4H62.1z M59,7h3V4.1h-3V7z"/>
	<linearGradient id="XMLID_46_" gradientUnits="userSpaceOnUse" x1="67.2862" y1="8.6017" x2="67.2862" y2="0.4044">
		<stop  offset="0" style="stop-color:#CFE7F5"/>
		<stop  offset="1" style="stop-color:#84C5DC"/>
	</linearGradient>
	<path id="XMLID_26_" fill="url(#XMLID_46_)" stroke="#62A1C0" stroke-width="0.3" stroke-miterlimit="10" d="M70.4,0.4v8.2h-4.7
		c-0.2,0-0.4,0-0.6-0.1c-0.2-0.1-0.4-0.2-0.5-0.3s-0.2-0.3-0.3-0.5c-0.1-0.2-0.1-0.4-0.1-0.6V4c0-0.2,0-0.4,0.1-0.6
		c0.1-0.2,0.2-0.3,0.3-0.5c0.1-0.1,0.3-0.3,0.5-0.3c0.2-0.1,0.4-0.1,0.6-0.1h3.1v-2H70.4z M65.8,7h3V4.1h-3V7z"/>
	<linearGradient id="XMLID_47_" gradientUnits="userSpaceOnUse" x1="74.6897" y1="8.6017" x2="74.6897" y2="2.4274">
		<stop  offset="0" style="stop-color:#CFE7F5"/>
		<stop  offset="1" style="stop-color:#84C5DC"/>
	</linearGradient>
	<path id="XMLID_29_" fill="url(#XMLID_47_)" stroke="#62A1C0" stroke-width="0.3" stroke-miterlimit="10" d="M76.3,2.4
		c0.2,0,0.4,0,0.6,0.1c0.2,0.1,0.4,0.2,0.5,0.3c0.1,0.1,0.2,0.3,0.3,0.5c0.1,0.2,0.1,0.4,0.1,0.6v4.6h-4.7c-0.2,0-0.4,0-0.6-0.1
		c-0.2-0.1-0.4-0.2-0.5-0.3s-0.2-0.3-0.3-0.5c-0.1-0.2-0.1-0.4-0.1-0.6V4.7h4.6V4.1h-4.6V2.4H76.3z M76.2,6.1h-3V7h3V6.1z"/>
	<linearGradient id="XMLID_48_" gradientUnits="userSpaceOnUse" x1="80.9174" y1="8.6017" x2="80.9174" y2="0.5962">
		<stop  offset="0" style="stop-color:#CFE7F5"/>
		<stop  offset="1" style="stop-color:#84C5DC"/>
	</linearGradient>
	<path id="XMLID_32_" fill="url(#XMLID_48_)" stroke="#62A1C0" stroke-width="0.3" stroke-miterlimit="10" d="M80.6,4.1V7h2.3v1.6
		h-2.4c-0.2,0-0.4,0-0.6-0.1c-0.2-0.1-0.4-0.2-0.5-0.3s-0.2-0.3-0.3-0.5C79,7.5,79,7.3,79,7.1V0.6h1.6v1.8h2.3v1.6H80.6z"/>
	<linearGradient id="XMLID_49_" gradientUnits="userSpaceOnUse" x1="86.8678" y1="8.6017" x2="86.8678" y2="2.4274">
		<stop  offset="0" style="stop-color:#CFE7F5"/>
		<stop  offset="1" style="stop-color:#84C5DC"/>
	</linearGradient>
	<path id="XMLID_34_" fill="url(#XMLID_49_)" stroke="#62A1C0" stroke-width="0.3" stroke-miterlimit="10" d="M88.5,2.4
		c0.2,0,0.4,0,0.6,0.1c0.2,0.1,0.4,0.2,0.5,0.3c0.1,0.1,0.2,0.3,0.3,0.5C90,3.6,90,3.8,90,4v2.4h-4.6V7H90v1.6h-4.7
		c-0.2,0-0.4,0-0.6-0.1c-0.2-0.1-0.3-0.2-0.5-0.3c-0.1-0.1-0.3-0.3-0.3-0.5c-0.1-0.2-0.1-0.4-0.1-0.6V4c0-0.2,0-0.4,0.1-0.6
		c0.1-0.2,0.2-0.3,0.3-0.5c0.1-0.1,0.3-0.3,0.5-0.3c0.2-0.1,0.4-0.1,0.6-0.1H88.5z M88.4,4.9V4.1h-3v0.9H88.4z"/>
</g>
</svg>
